<svg width="60" height="60" viewBox="0 0 60 60" fill="none" xmlns="http://www.w3.org/2000/svg">
<path d="M25.45 42.52C25.75 42.52 25.9775 42.51 26.1275 42.49C26.3035 42.4544 26.4621 42.3601 26.5775 42.2225C26.7275 42.065 26.8025 41.8375 26.8025 41.5375L26.7925 40.145C26.785 39.2575 26.7825 38.5525 26.7825 38.035L26.3125 38.1175C25.9364 38.1767 25.5555 38.2002 25.175 38.1875C24.6969 38.179 24.2203 38.1314 23.75 38.045C23.2509 37.9519 22.7812 37.7411 22.38 37.43C21.9594 37.1118 21.6455 36.6732 21.48 36.1725L21.275 35.7C21.1026 35.3279 20.886 34.9779 20.63 34.6575C20.4001 34.329 20.0938 34.0613 19.7375 33.8775L19.595 33.7775C19.4969 33.7052 19.4079 33.6213 19.33 33.5275C19.2544 33.4423 19.1921 33.3462 19.145 33.2425C19.105 33.1475 19.1375 33.0675 19.245 33.0075C19.4337 32.9317 19.6372 32.9 19.84 32.915L20.25 32.9775C20.525 33.03 20.8625 33.195 21.265 33.4675C21.665 33.7425 21.9975 34.095 22.2575 34.5325C22.5725 35.0925 22.95 35.52 23.395 35.8125C23.7878 36.0895 24.2545 36.2427 24.735 36.2525C25.185 36.2525 25.575 36.22 25.9025 36.1525C26.2213 36.0864 26.531 35.9823 26.825 35.8425C26.9475 34.93 27.28 34.225 27.825 33.735C27.1175 33.665 26.4163 33.5413 25.7275 33.365C25.055 33.1796 24.4083 32.9109 23.8025 32.565C23.1681 32.2208 22.6075 31.7553 22.1525 31.195C21.7175 30.6475 21.36 29.9325 21.0775 29.045C20.783 28.048 20.6422 27.0119 20.66 25.9725C20.66 24.3225 21.2 22.915 22.2775 21.755C21.7725 20.5125 21.82 19.12 22.42 17.5775C22.8175 17.4525 23.405 17.545 24.1825 17.8525C24.96 18.16 25.5325 18.4225 25.8925 18.6425C26.255 18.86 26.5425 19.0425 26.7625 19.1925C28.0429 18.8369 29.3661 18.6586 30.695 18.6625C32.045 18.6625 33.3575 18.8375 34.6275 19.195L35.4025 18.7025C35.9375 18.3775 36.565 18.075 37.2875 17.8025C38.0125 17.5275 38.565 17.4525 38.9475 17.5775C39.5625 19.12 39.6175 20.5125 39.11 21.7525C40.19 22.915 40.73 24.32 40.73 25.9725C40.73 27.1325 40.59 28.16 40.31 29.055C40.03 29.95 39.6675 30.665 39.225 31.205C38.7626 31.7598 38.1993 32.2221 37.565 32.5675C36.9592 32.9135 36.3125 33.1822 35.64 33.3675C34.9503 33.5431 34.2483 33.666 33.54 33.735C34.25 34.3475 34.605 35.3175 34.605 36.6425V41.535C34.605 41.7675 34.64 41.955 34.7075 42.1C34.7393 42.1691 34.7846 42.231 34.8409 42.2821C34.8972 42.3333 34.9632 42.3725 35.035 42.3975C35.185 42.45 35.32 42.485 35.435 42.4975C35.5525 42.5125 35.7175 42.52 35.935 42.52H31.02H25.45Z" fill="#6B7280"/>
<path d="M30 50C35.3043 50 40.3914 47.8929 44.1421 44.1421C47.8929 40.3914 50 35.3043 50 30C50 24.6957 47.8929 19.6086 44.1421 15.8579C40.3914 12.1071 35.3043 10 30 10C24.6957 10 19.6086 12.1071 15.8579 15.8579C12.1071 19.6086 10 24.6957 10 30C10 35.3043 12.1071 40.3914 15.8579 44.1421C19.6086 47.8929 24.6957 50 30 50ZM30 55C16.1925 55 5 43.8075 5 30C5 16.1925 16.1925 5 30 5C43.8075 5 55 16.1925 55 30C55 43.8075 43.8075 55 30 55Z" fill="#6B7280"/>
</svg>
